<?xml version="1.0" standalone="no"?>
<!DOCTYPE svg PUBLIC "-//W3C//DTD SVG 20010904//EN"
 "http://www.w3.org/TR/2001/REC-SVG-20010904/DTD/svg10.dtd">
<svg version="1.0" xmlns="http://www.w3.org/2000/svg"
 width="500.000000pt" height="500.000000pt" viewBox="0 0 500.000000 500.000000"
 preserveAspectRatio="xMidYMid meet">
<metadata>
Created by potrace 1.14, written by Peter Selinger 2001-2017
</metadata>
<g transform="translate(0.000000,500.000000) scale(0.100000,-0.100000)"
fill="#000000" stroke="none">
<path d="M2520 4347 c-3 -3 -29 -8 -57 -11 -79 -8 -123 -17 -173 -38 -25 -11
-54 -23 -65 -27 -57 -23 -121 -56 -127 -65 -4 -6 -8 -8 -8 -4 0 12 -101 -52
-144 -92 -101 -92 -141 -135 -211 -229 -42 -55 -84 -120 -94 -143 -10 -24 -28
-63 -39 -88 -31 -67 -53 -122 -58 -145 -4 -18 -14 -69 -29 -145 -3 -14 -9 -47
-15 -75 -6 -27 -12 -68 -14 -90 -2 -22 -9 -78 -15 -125 -10 -83 -19 -201 -26
-350 -10 -194 -33 -388 -60 -490 -15 -58 -29 -92 -50 -122 -16 -24 -21 -38
-13 -40 8 -3 7 -12 -5 -28 -24 -34 -22 -62 2 -31 27 35 50 22 47 -26 -2 -26 5
-50 22 -76 13 -22 24 -47 25 -58 1 -20 10 -22 42 -10 31 12 78 -8 72 -30 -3
-12 0 -19 9 -19 8 0 14 5 14 10 0 19 28 10 59 -19 17 -16 31 -27 31 -26 0 2
16 -3 35 -11 43 -18 60 -18 78 1 13 12 21 12 69 -5 30 -10 63 -17 74 -15 10 2
25 4 32 4 13 1 12 27 -4 84 -3 9 -2 17 3 17 10 0 43 -57 43 -76 0 -8 5 -14 10
-14 6 0 10 -7 10 -15 0 -8 3 -15 8 -16 4 0 15 -2 25 -4 9 -2 17 3 17 11 0 22
20 17 46 -12 13 -14 24 -23 24 -20 0 4 8 -2 18 -11 44 -43 70 -60 174 -121
l48 -27 -6 -70 c-3 -38 -7 -84 -8 -100 -3 -32 -29 -81 -56 -103 -15 -12 -95
-52 -115 -58 -62 -16 -78 -14 -103 11 -25 26 -29 26 -112 20 -47 -4 -110 -9
-140 -11 -72 -5 -80 -9 -80 -38 0 -21 -7 -26 -52 -37 -29 -7 -55 -14 -58 -14
-3 -1 -18 -7 -35 -14 -16 -7 -38 -13 -47 -14 -10 -1 -18 -5 -18 -10 0 -4 -4
-6 -8 -3 -11 7 -64 -29 -55 -37 3 -4 1 -7 -5 -7 -7 0 -32 -20 -57 -43 -25 -24
-47 -42 -49 -39 -7 7 -46 -60 -40 -70 3 -4 0 -8 -6 -8 -6 0 -8 -5 -5 -10 3 -6
1 -10 -6 -10 -7 0 -10 -3 -6 -6 3 -4 -1 -20 -9 -36 -9 -17 -17 -37 -19 -46 -2
-10 -12 -37 -21 -62 -9 -25 -18 -54 -20 -64 -4 -21 -22 -82 -31 -106 -3 -8 -8
-24 -10 -35 -2 -10 -7 -22 -11 -25 -4 -3 -8 -14 -10 -25 -3 -25 -4 -27 -29
-92 -3 -10 -5 -24 -4 -30 1 -7 -2 -13 -6 -13 -5 0 -9 -10 -10 -22 -1 -11 -7
-24 -13 -28 -7 -4 -10 -9 -9 -11 1 -2 -2 -17 -8 -34 -6 -16 -11 -33 -12 -37
-3 -13 -28 -82 -50 -136 l-21 -52 268 2 c247 3 267 4 266 21 -1 9 2 17 6 17 4
0 11 10 15 23 10 30 12 36 15 42 1 3 3 8 5 13 2 7 15 36 55 127 22 50 35 88
32 98 -1 4 2 7 7 7 9 0 26 48 23 63 -1 4 3 7 8 7 6 0 10 8 10 17 0 9 3 13 7 9
4 -4 5 -28 4 -54 -8 -105 -7 -159 6 -190 7 -18 12 -36 11 -40 -1 -4 6 -34 16
-67 9 -33 19 -68 22 -77 5 -17 56 -18 843 -17 l839 0 11 52 c7 29 13 59 15 67
2 8 7 30 11 48 7 28 24 45 26 25 0 -5 10 -48 23 -98 l22 -90 239 -2 c149 -2
243 1 249 7 7 7 6 10 -3 10 -7 0 -10 4 -7 8 3 4 1 26 -4 48 -5 21 -11 53 -14
69 -2 17 -7 41 -11 55 -3 14 -7 39 -10 55 -3 17 -7 41 -10 55 -3 14 -7 41 -10
60 -3 19 -7 46 -10 60 -4 23 -11 87 -20 180 -2 19 -4 35 -5 35 -1 0 -3 11 -6
25 -2 14 -7 36 -10 50 -4 14 -8 32 -10 40 -12 63 -27 110 -35 110 -5 0 -9 5
-9 10 0 6 -9 21 -21 33 -11 12 -34 43 -51 69 -31 47 -48 58 -148 98 -30 12
-66 27 -80 33 -31 13 -36 14 -59 16 -15 1 -21 10 -23 34 -3 30 -5 32 -43 33
-22 1 -56 4 -75 7 -117 20 -220 28 -220 16 0 -5 -6 -9 -14 -9 -8 0 -22 -7 -31
-16 -10 -10 -22 -13 -33 -8 -9 4 -19 8 -22 9 -3 1 -18 8 -35 15 -16 7 -33 13
-37 12 -5 -1 -8 2 -8 8 0 5 -9 10 -20 10 -11 0 -20 7 -20 15 0 8 -3 15 -7 15
-5 0 -18 15 -30 33 -16 24 -24 54 -29 117 -3 47 -8 88 -10 92 -3 4 34 30 80
59 47 28 94 60 105 70 11 11 24 19 28 19 8 0 156 150 183 185 53 70 69 96 89
147 16 40 27 55 37 51 8 -3 14 -16 14 -29 0 -15 6 -24 15 -24 8 0 15 7 15 15
0 17 21 11 62 -17 15 -10 29 -14 32 -10 3 5 26 12 51 15 55 6 59 9 47 34 -22
40 -39 112 -48 203 -7 63 6 58 25 -10 22 -76 90 -184 106 -169 3 4 0 13 -7 21
-44 47 -69 98 -93 192 -13 53 -13 61 2 90 10 17 18 33 18 36 2 7 14 39 26 68
5 13 7 27 4 32 -3 5 -1 11 5 15 13 8 5 148 -9 153 -6 2 -11 10 -11 18 0 8 -5
14 -11 14 -5 0 -8 4 -4 9 3 5 -7 19 -21 30 -25 20 -27 26 -24 84 6 126 3 404
-4 462 -25 199 -89 387 -175 511 -90 129 -180 209 -270 239 -41 13 -49 20 -46
37 4 18 -38 114 -56 128 -4 3 -26 21 -49 40 -24 19 -46 35 -49 36 -3 0 -24 8
-46 19 -22 10 -45 19 -52 20 -6 2 -27 8 -45 14 -18 5 -55 12 -83 15 -27 3 -77
8 -110 12 -33 3 -62 4 -65 1z"/>
</g>
</svg>
